<?xml version="1.0" standalone="no"?>
<!DOCTYPE svg PUBLIC "-//W3C//DTD SVG 20010904//EN"
 "http://www.w3.org/TR/2001/REC-SVG-20010904/DTD/svg10.dtd">
<svg version="1.0" xmlns="http://www.w3.org/2000/svg"
 width="500.000000pt" height="500.000000pt" viewBox="0 0 500.000000 500.000000"
 preserveAspectRatio="xMidYMid meet">
<metadata>
Created by potrace 1.16, written by Peter Selinger 2001-2019
</metadata>
<g transform="translate(0.000000,500.000000) scale(0.100000,-0.100000)"
fill="#000000" stroke="none">
<path d="M932 4688 c-8 -8 -12 -57 -12 -154 l0 -142 -132 -4 c-118 -5 -139 -8
-185 -32 -29 -14 -58 -26 -64 -26 -5 0 -45 -35 -88 -77 -74 -75 -112 -134
-140 -222 -16 -48 -16 -3014 0 -3062 28 -88 66 -147 140 -221 43 -43 82 -78
88 -78 6 0 36 -12 68 -28 l58 -27 1680 0 1680 0 79 39 c107 52 190 135 242
242 l39 79 0 1525 0 1525 -39 79 c-52 107 -135 190 -242 242 -77 38 -82 39
-206 42 l-128 4 0 142 c0 97 -4 146 -12 154 -8 8 -59 12 -163 12 -104 0 -155
-4 -163 -12 -8 -8 -12 -57 -12 -155 l0 -143 -1075 0 -1075 0 0 143 c0 98 -4
147 -12 155 -17 17 -309 17 -326 0z m-12 -786 c0 -102 4 -152 12 -160 17 -17
309 -17 326 0 8 8 12 58 12 160 l0 148 1075 0 1075 0 0 -148 c0 -102 4 -152
12 -160 17 -17 309 -17 326 0 8 8 12 59 12 161 l0 150 93 -5 c100 -5 131 -18
164 -66 16 -24 18 -55 21 -279 l4 -253 -1706 0 -1706 0 0 233 c0 129 5 249 10
269 12 41 58 83 100 91 14 2 58 5 98 6 l72 1 0 -148z m3128 -1824 c-3 -980 -4
-1034 -21 -1060 -10 -15 -30 -35 -45 -45 -26 -17 -97 -18 -1638 -18 l-1611 0
-36 28 c-23 17 -40 41 -47 65 -6 24 -10 382 -10 1050 l0 1012 1705 0 1705 0
-2 -1032z"/>
<path d="M1562 2818 c-8 -8 -12 -59 -12 -163 0 -104 4 -155 12 -163 17 -17
299 -17 316 0 17 17 17 309 0 326 -8 8 -58 12 -158 12 -100 0 -150 -4 -158
-12z"/>
<path d="M2182 2818 c-8 -8 -12 -59 -12 -163 0 -104 4 -155 12 -163 17 -17
309 -17 326 0 17 17 17 309 0 326 -17 17 -309 17 -326 0z"/>
<path d="M2812 2818 c-17 -17 -17 -309 0 -326 17 -17 299 -17 316 0 17 17 17
309 0 326 -8 8 -58 12 -158 12 -100 0 -150 -4 -158 -12z"/>
<path d="M3432 2818 c-17 -17 -17 -309 0 -326 17 -17 309 -17 326 0 17 17 17
309 0 326 -17 17 -309 17 -326 0z"/>
<path d="M932 2188 c-17 -17 -17 -299 0 -316 17 -17 309 -17 326 0 17 17 17
299 0 316 -8 8 -59 12 -163 12 -104 0 -155 -4 -163 -12z"/>
<path d="M1562 2188 c-8 -8 -12 -58 -12 -158 0 -100 4 -150 12 -158 17 -17
299 -17 316 0 17 17 17 299 0 316 -8 8 -58 12 -158 12 -100 0 -150 -4 -158
-12z"/>
<path d="M2182 2188 c-8 -8 -12 -58 -12 -158 0 -100 4 -150 12 -158 17 -17
309 -17 326 0 17 17 17 299 0 316 -8 8 -59 12 -163 12 -104 0 -155 -4 -163
-12z"/>
<path d="M2812 2188 c-8 -8 -12 -58 -12 -158 0 -100 4 -150 12 -158 17 -17
299 -17 316 0 17 17 17 299 0 316 -8 8 -58 12 -158 12 -100 0 -150 -4 -158
-12z"/>
<path d="M3432 2188 c-8 -8 -12 -58 -12 -158 0 -100 4 -150 12 -158 17 -17
309 -17 326 0 17 17 17 299 0 316 -8 8 -59 12 -163 12 -104 0 -155 -4 -163
-12z"/>
<path d="M932 1568 c-17 -17 -17 -309 0 -326 17 -17 309 -17 326 0 17 17 17
309 0 326 -8 8 -59 12 -163 12 -104 0 -155 -4 -163 -12z"/>
<path d="M1562 1568 c-8 -8 -12 -59 -12 -163 0 -104 4 -155 12 -163 17 -17
299 -17 316 0 17 17 17 309 0 326 -8 8 -58 12 -158 12 -100 0 -150 -4 -158
-12z"/>
<path d="M2182 1568 c-8 -8 -12 -59 -12 -163 0 -104 4 -155 12 -163 17 -17
309 -17 326 0 17 17 17 309 0 326 -8 8 -59 12 -163 12 -104 0 -155 -4 -163
-12z"/>
</g>
</svg>
