<?xml version="1.0" encoding="UTF-8"?>
<svg xmlns="http://www.w3.org/2000/svg" xmlns:xlink="http://www.w3.org/1999/xlink" width="64px" height="64px" viewBox="0 0 64 64" version="1.1">
<g id="surface1">
<path style=" stroke:none;fill-rule:nonzero;fill:rgb(0%,0%,0%);fill-opacity:1;" d="M 45.441406 0.269531 C 43.53125 0.550781 40.921875 1.585938 39.128906 2.777344 C 37.9375 3.558594 36.121094 5.300781 35.199219 6.539062 C 32.179688 10.597656 31.269531 16.089844 32.859375 20.929688 C 33.292969 22.273438 34.394531 24.421875 35.1875 25.484375 C 36.632812 27.390625 38.59375 29.042969 40.691406 30.132812 C 45.300781 32.511719 50.457031 32.550781 55.105469 30.234375 C 59.636719 27.980469 62.785156 23.742188 63.691406 18.714844 C 63.949219 17.253906 63.949219 14.707031 63.679688 13.246094 C 62.503906 6.65625 57.292969 1.460938 50.726562 0.320312 C 49.546875 0.113281 46.644531 0.0898438 45.441406 0.269531 Z M 51.238281 4.402344 C 51.867188 4.59375 52.558594 4.839844 52.761719 4.941406 L 53.160156 5.144531 L 45.171875 13.132812 C 40.78125 17.523438 37.144531 21.070312 37.09375 21.019531 C 36.902344 20.824219 36.351562 19.1875 36.148438 18.164062 C 35.867188 16.78125 35.957031 14.308594 36.339844 12.914062 C 37.375 9.101562 40.320312 5.902344 43.929688 4.644531 C 45.503906 4.097656 46.386719 3.96875 48.320312 4.019531 C 49.804688 4.058594 50.304688 4.121094 51.238281 4.402344 Z M 59.125 11.417969 C 59.957031 13.425781 60.25 16.113281 59.851562 18.238281 C 58.996094 22.785156 55.410156 26.558594 50.816406 27.726562 C 49.511719 28.058594 46.515625 28.070312 45.335938 27.738281 C 44.582031 27.53125 42.894531 26.917969 42.753906 26.789062 C 42.6875 26.738281 58.636719 10.753906 58.765625 10.753906 C 58.816406 10.753906 58.96875 11.058594 59.125 11.417969 Z M 59.125 11.417969 "/>
<path style=" stroke:none;fill-rule:nonzero;fill:rgb(0%,0%,0%);fill-opacity:1;" d="M 8.382812 4.722656 C 6.578125 5.261719 6.195312 5.542969 3.300781 8.472656 C 1.175781 10.636719 0.871094 10.996094 0.550781 11.761719 L 0.191406 12.609375 L 0.203125 15.488281 C 0.21875 19.53125 0.742188 23.117188 1.921875 27.355469 C 6.015625 42.0625 16.652344 54.144531 30.667969 60.019531 C 36.132812 62.296875 41.433594 63.5 47.820312 63.886719 C 50.164062 64.027344 50.292969 64.011719 51.265625 63.757812 C 51.828125 63.601562 52.558594 63.320312 52.875 63.140625 C 53.246094 62.949219 54.4375 61.847656 55.910156 60.363281 C 57.90625 58.34375 58.394531 57.777344 58.738281 57.089844 C 59.316406 55.898438 59.519531 55.015625 59.519531 53.671875 C 59.519531 52.328125 59.136719 51.019531 58.355469 49.726562 C 57.765625 48.742188 56.179688 47.257812 55.15625 46.757812 C 54.066406 46.207031 46.09375 44.03125 44.863281 43.941406 C 43.699219 43.867188 42.34375 44.148438 41.101562 44.75 C 40.28125 45.132812 39.871094 45.453125 38.398438 46.925781 C 37.441406 47.871094 36.570312 48.640625 36.453125 48.640625 C 36.132812 48.640625 33.382812 47.65625 32.140625 47.105469 C 28.863281 45.632812 26.0625 43.710938 23.449219 41.164062 C 20.875 38.65625 18.945312 35.980469 17.34375 32.730469 C 16.472656 30.9375 15.359375 28.042969 15.359375 27.53125 C 15.359375 27.417969 16.128906 26.574219 17.0625 25.652344 C 18.507812 24.230469 18.839844 23.820312 19.238281 23.015625 C 19.507812 22.476562 19.8125 21.621094 19.917969 21.105469 C 20.261719 19.480469 20.132812 18.597656 18.878906 14.078125 C 18.265625 11.867188 17.664062 9.777344 17.535156 9.460938 C 16.984375 7.988281 15.230469 6.09375 13.773438 5.375 C 11.96875 4.492188 9.984375 4.25 8.382812 4.722656 Z M 8.382812 4.722656 "/>
</g>
</svg>
